<svg id="visual" viewBox="0 0 900 200" width="900" height="200" xmlns="http://www.w3.org/2000/svg" xmlns:xlink="http://www.w3.org/1999/xlink" version="1.1"><rect x="0" y="0" width="900" height="200" fill="#fff"></rect><g transform="translate(455.62790595523035 319.79906279667784)"><path d="M126.5 -186.3C162.5 -148 189.2 -109.1 209.8 -63.9C230.5 -18.6 245.1 32.9 231.1 74.9C217.2 116.9 174.7 149.5 131.4 175.4C88.2 201.4 44.1 220.7 -2.3 223.8C-48.6 226.9 -97.2 213.8 -143.1 188.7C-189.1 163.6 -232.5 126.6 -244.3 81.4C-256.2 36.3 -236.5 -17.1 -214.2 -64.7C-192 -112.2 -167.1 -154 -131 -192.3C-94.8 -230.5 -47.4 -265.3 -1.1 -263.8C45.3 -262.3 90.5 -224.6 126.5 -186.3" fill="#BB004B"></path></g></svg>
