<svg id="visual" viewBox="0 0 900 600" width="900" height="600" xmlns="http://www.w3.org/2000/svg" xmlns:xlink="http://www.w3.org/1999/xlink" version="1.1"><rect x="0" y="0" width="900" height="600" fill="#F9F9F9"></rect><defs><linearGradient id="grad1_0" x1="33.3%" y1="0%" x2="100%" y2="100%"><stop offset="20%" stop-color="#f9f9f9" stop-opacity="1"></stop><stop offset="80%" stop-color="#f9f9f9" stop-opacity="1"></stop></linearGradient></defs><defs><linearGradient id="grad2_0" x1="0%" y1="0%" x2="66.7%" y2="100%"><stop offset="20%" stop-color="#f9f9f9" stop-opacity="1"></stop><stop offset="80%" stop-color="#f9f9f9" stop-opacity="1"></stop></linearGradient></defs><g transform="translate(900, 0)"><path d="M0 216.3C-15.3 206.8 -30.6 197.3 -42.9 188.2C-55.3 179.1 -64.6 170.4 -82 170.3C-99.4 170.1 -124.7 178.5 -134.9 169.1C-145.1 159.8 -140 132.6 -146.2 116.6C-152.4 100.6 -169.7 95.6 -175.7 84.6C-181.7 73.6 -176.4 56.5 -181.3 41.4C-186.2 26.3 -201.3 13.1 -216.3 0L0 0Z" fill="#5AA9E6"></path></g><g transform="translate(0, 600)"><path d="M0 -216.3C16.7 -213.6 33.5 -210.8 45.8 -200.8C58.2 -190.9 66.2 -173.8 81.6 -169.4C96.9 -165 119.6 -173.3 134.9 -169.1C150.1 -164.9 158 -148.2 168.1 -134.1C178.2 -119.9 190.6 -108.2 193.7 -93.3C196.9 -78.4 190.8 -60.2 193 -44.1C195.3 -28 205.8 -14 216.3 0L0 0Z" fill="#5AA9E6"></path></g></svg>