<svg id="visual" viewBox="0 0 900 600" width="900" height="600" xmlns="http://www.w3.org/2000/svg" xmlns:xlink="http://www.w3.org/1999/xlink" version="1.1"><rect x="0" y="0" width="900" height="600" fill="#F9F9F9"></rect><defs><linearGradient id="grad1_0" x1="33.3%" y1="0%" x2="100%" y2="100%"><stop offset="20%" stop-color="#f9f9f9" stop-opacity="1"></stop><stop offset="80%" stop-color="#f9f9f9" stop-opacity="1"></stop></linearGradient></defs><defs><linearGradient id="grad2_0" x1="0%" y1="0%" x2="66.7%" y2="100%"><stop offset="20%" stop-color="#f9f9f9" stop-opacity="1"></stop><stop offset="80%" stop-color="#f9f9f9" stop-opacity="1"></stop></linearGradient></defs><g transform="translate(900, 0)"><path d="M0 324.5C-23.3 315.2 -46.5 306 -67 293.5C-87.4 280.9 -105.1 265.2 -121.1 251.4C-137 237.6 -151.2 225.7 -174 218.1C-196.7 210.6 -228 207.4 -238.5 190.2C-248.9 172.9 -238.5 141.6 -251.4 121.1C-264.2 100.5 -300.3 90.6 -316.4 72.2C-332.4 53.8 -328.5 26.9 -324.5 0L0 0Z" fill="#5AA9E6"></path></g><g transform="translate(0, 600)"><path d="M0 -324.5C19.6 -301.8 39.3 -279.1 62.5 -274C85.8 -268.9 112.6 -281.4 132.8 -275.7C152.9 -270 166.4 -246.1 182.7 -229.1C199 -212 218.1 -201.8 235.3 -187.7C252.5 -173.5 267.8 -155.4 282 -135.8C296.2 -116.2 309.5 -95.1 316.4 -72.2C323.3 -49.3 323.9 -24.7 324.5 0L0 0Z" fill="#5AA9E6"></path></g></svg>