<svg id="visual" viewBox="0 0 900 600" width="900" height="600" xmlns="http://www.w3.org/2000/svg" xmlns:xlink="http://www.w3.org/1999/xlink" version="1.1"><rect x="0" y="0" width="900" height="600" fill="#F9F9F9"></rect><defs><linearGradient id="grad1_0" x1="33.3%" y1="0%" x2="100%" y2="100%"><stop offset="20%" stop-color="#f9f9f9" stop-opacity="1"></stop><stop offset="80%" stop-color="#f9f9f9" stop-opacity="1"></stop></linearGradient></defs><defs><linearGradient id="grad2_0" x1="0%" y1="0%" x2="66.7%" y2="100%"><stop offset="20%" stop-color="#f9f9f9" stop-opacity="1"></stop><stop offset="80%" stop-color="#f9f9f9" stop-opacity="1"></stop></linearGradient></defs><g transform="translate(900, 0)"><path d="M0 405.6C-30 397.9 -60 390.2 -85.7 375.3C-111.3 360.5 -132.6 338.7 -156.2 324.3C-179.8 310 -205.7 303.3 -234.4 294C-263.2 284.6 -294.7 272.6 -315.9 251.9C-337 231.1 -347.7 201.6 -360.4 173.6C-373 145.5 -387.6 118.9 -395.5 90.3C-403.3 61.6 -404.5 30.8 -405.6 0L0 0Z" fill="#5AA9E6"></path></g><g transform="translate(0, 600)"><path d="M0 -405.6C32.5 -408.6 65 -411.6 89.9 -393.9C114.8 -376.2 132.2 -337.9 151.9 -315.3C171.5 -292.8 193.6 -286.1 223.8 -280.7C254.1 -275.2 292.6 -271 317.1 -252.9C341.7 -234.8 352.3 -202.7 357.7 -172.3C363.1 -141.8 363.3 -113 370.5 -84.6C377.6 -56.1 391.6 -28.1 405.6 0L0 0Z" fill="#5AA9E6"></path></g></svg>