<?xml version="1.0" standalone="no"?><svg xmlns="http://www.w3.org/2000/svg" viewBox="0 0 1440 320"><path fill="#0099ff" fill-opacity="1" d="M0,288L34.3,293.3C68.6,299,137,309,206,272C274.3,235,343,149,411,128C480,107,549,149,617,170.7C685.7,192,754,192,823,213.3C891.4,235,960,277,1029,256C1097.1,235,1166,149,1234,149.3C1302.9,149,1371,235,1406,277.3L1440,320L1440,320L1405.7,320C1371.4,320,1303,320,1234,320C1165.7,320,1097,320,1029,320C960,320,891,320,823,320C754.3,320,686,320,617,320C548.6,320,480,320,411,320C342.9,320,274,320,206,320C137.1,320,69,320,34,320L0,320Z"></path></svg>